<?xml version="1.0" standalone="no"?>
<!DOCTYPE svg PUBLIC "-//W3C//DTD SVG 20010904//EN"
 "http://www.w3.org/TR/2001/REC-SVG-20010904/DTD/svg10.dtd">
<svg version="1.0" xmlns="http://www.w3.org/2000/svg"
 width="1008.000000pt" height="1008.000000pt" viewBox="0 0 1008.000000 1008.000000"
 preserveAspectRatio="xMidYMid meet">
<metadata>
Created by potrace 1.14, written by Peter Selinger 2001-2017
</metadata>
<g transform="translate(0.000000,1008.000000) scale(0.100000,-0.100000)"
fill="#000000" stroke="none">
<path d="M4778 10076 c-1 -2 -50 -6 -108 -10 -58 -3 -116 -8 -130 -10 -14 -2
-54 -7 -90 -11 -36 -4 -74 -9 -85 -11 -11 -1 -40 -6 -65 -9 -25 -3 -67 -10
-95 -15 -27 -5 -66 -12 -85 -15 -292 -48 -755 -189 -1067 -325 -569 -249
-1093 -604 -1521 -1029 -117 -116 -165 -167 -262 -276 -178 -200 -398 -507
-558 -780 -56 -96 -232 -436 -232 -449 0 -2 -14 -35 -31 -73 -43 -97 -44 -99
-80 -193 -49 -130 -97 -274 -129 -390 -16 -58 -36 -127 -44 -155 -27 -92 -87
-393 -102 -505 -3 -25 -7 -56 -10 -70 -4 -23 -8 -55 -19 -160 -6 -59 -18 -213
-19 -247 -1 -17 -4 -34 -7 -38 -4 -3 -3 -21 1 -40 4 -19 6 -36 3 -38 -4 -5 -4
-299 1 -352 2 -16 -2 -36 -8 -44 -8 -11 -8 -13 0 -8 8 4 12 -10 13 -46 2 -66
7 -134 16 -222 10 -94 10 -93 19 -150 4 -27 9 -63 11 -80 3 -16 8 -50 13 -75
5 -25 8 -55 7 -67 -1 -12 1 -20 5 -18 7 4 11 -25 14 -92 0 -17 4 -29 9 -26 4
2 8 -8 9 -24 1 -33 3 -43 11 -63 3 -8 11 -40 17 -70 6 -30 14 -62 17 -70 6
-14 11 -37 17 -67 1 -7 5 -16 9 -19 4 -4 7 -19 7 -34 0 -14 4 -30 8 -35 12
-14 34 -96 28 -102 -3 -3 1 -12 9 -20 13 -13 20 -41 16 -65 0 -5 4 -8 9 -8 6
0 10 -6 9 -12 -1 -7 6 -31 16 -53 10 -22 18 -52 19 -67 0 -14 4 -24 9 -21 4 2
10 -4 13 -14 3 -10 17 -47 30 -83 14 -36 25 -69 24 -73 0 -4 6 -15 15 -23 8
-9 15 -24 15 -34 0 -10 5 -22 11 -25 5 -4 8 -12 6 -18 -2 -7 3 -17 11 -23 7
-5 15 -22 15 -36 1 -15 4 -25 6 -22 6 6 39 -60 34 -68 -2 -5 1 -8 7 -8 7 0 9
-7 6 -16 -3 -8 -2 -13 3 -10 11 7 35 -50 26 -64 -3 -6 -3 -9 2 -8 4 2 9 -1 10
-6 1 -5 5 -12 10 -15 4 -3 15 -19 24 -36 51 -94 85 -154 106 -187 12 -21 23
-42 23 -47 0 -5 7 -14 15 -21 9 -7 13 -15 11 -17 -3 -3 4 -15 15 -26 11 -12
17 -27 14 -35 -3 -7 0 -10 6 -7 6 4 13 -2 16 -14 3 -12 9 -21 14 -21 5 0 14
-10 19 -22 14 -32 24 -47 85 -129 19 -26 31 -49 28 -53 -4 -3 -2 -6 4 -6 5 0
25 -21 43 -47 19 -27 38 -49 42 -51 4 -2 8 -8 8 -14 0 -5 7 -16 15 -25 8 -8
12 -20 8 -26 -3 -7 -3 -9 2 -5 4 4 17 -2 27 -15 11 -12 31 -35 44 -50 14 -15
22 -33 18 -39 -4 -6 -3 -8 3 -5 6 4 19 -3 29 -15 11 -12 13 -18 5 -13 -10 5
-12 4 -7 -3 4 -7 14 -12 22 -12 13 0 19 -12 15 -33 -1 -5 3 -6 8 -3 13 8 42
-34 34 -48 -3 -6 -3 -8 1 -4 9 8 62 -42 58 -55 -1 -5 2 -6 8 -2 6 3 18 -7 28
-24 9 -17 20 -31 23 -31 10 0 79 -70 79 -80 0 -4 7 -11 16 -14 9 -3 12 -11 8
-18 -4 -7 -4 -10 1 -6 4 4 16 -2 26 -14 11 -11 19 -18 19 -14 0 4 7 1 15 -8
18 -17 20 -30 3 -20 -7 4 -8 3 -4 -5 4 -6 12 -9 17 -5 5 3 37 -22 71 -55 33
-34 63 -61 65 -61 12 0 63 -57 63 -70 0 -11 2 -12 8 -3 6 9 12 7 22 -7 8 -11
20 -20 26 -20 7 0 14 -3 16 -7 2 -5 28 -28 58 -52 63 -52 81 -67 63 -57 -9 5
-11 2 -6 -9 4 -13 8 -14 14 -4 6 10 11 10 23 0 9 -7 13 -18 9 -24 -3 -5 -2 -7
4 -4 14 9 55 -22 47 -35 -4 -7 -2 -8 4 -4 6 3 26 -3 44 -15 18 -12 24 -18 13
-14 -13 4 -16 3 -10 -3 6 -6 19 -12 30 -14 11 -2 19 -9 18 -16 -2 -6 3 -9 11
-6 8 3 20 -3 27 -13 8 -10 20 -19 28 -21 7 -1 20 -9 28 -17 8 -8 19 -15 24
-15 13 0 34 -21 42 -40 4 -11 6 -11 6 -2 1 10 9 7 30 -7 16 -12 34 -21 40 -21
6 0 11 -4 11 -8 0 -5 25 -21 55 -37 30 -15 52 -31 49 -36 -3 -5 -2 -9 3 -8 21
4 34 -2 27 -13 -4 -6 -3 -8 3 -5 13 8 113 -41 113 -55 0 -6 3 -9 6 -5 10 9 66
-22 59 -33 -4 -6 1 -7 11 -3 10 3 15 2 12 -3 -4 -5 5 -10 18 -10 13 -1 31 -9
39 -18 9 -9 21 -14 26 -11 5 4 9 1 9 -4 0 -6 9 -11 20 -11 11 0 20 -5 20 -11
0 -5 4 -7 10 -4 5 3 10 1 10 -5 0 -6 5 -8 10 -5 6 3 10 1 10 -4 0 -6 3 -10 8
-10 19 3 33 -2 28 -10 -4 -5 4 -7 16 -3 16 4 19 2 13 -8 -5 -9 -4 -11 3 -6 6
4 22 0 35 -9 13 -8 27 -12 30 -8 4 3 7 1 7 -6 0 -7 5 -9 10 -6 6 3 10 -2 11
-12 0 -10 3 -13 5 -7 3 8 25 4 69 -14 35 -14 62 -28 60 -32 -2 -4 7 -5 20 -2
15 2 25 0 25 -7 0 -7 5 -9 12 -5 8 5 9 1 4 -12 -6 -15 -5 -17 5 -6 15 14 33
17 25 3 -3 -5 6 -8 20 -8 15 -1 29 -4 33 -9 6 -9 15 -12 61 -21 14 -2 27 -8
28 -14 2 -5 8 -7 13 -4 4 3 22 -1 39 -10 16 -8 31 -15 32 -14 2 1 14 -1 28 -5
79 -22 99 -30 93 -40 -4 -7 -2 -7 6 0 13 12 51 7 51 -6 0 -5 10 -6 22 -2 17 4
20 2 15 -11 -3 -9 -2 -19 4 -22 5 -4 8 -1 7 7 -3 13 16 15 62 5 14 -3 31 -6
38 -6 7 -1 10 -5 7 -11 -3 -6 1 -7 9 -4 10 4 16 1 16 -7 0 -11 3 -11 10 1 5 8
10 10 10 3 0 -6 9 -9 22 -5 11 3 19 1 16 -4 -4 -5 8 -9 25 -10 51 -1 111 -15
119 -28 6 -8 8 -7 8 2 0 10 5 10 20 2 11 -6 25 -8 30 -5 6 3 10 3 10 -2 0 -4
17 -9 38 -10 20 -1 51 -4 67 -7 34 -6 141 -18 168 -19 9 -1 17 -4 17 -7 0 -3
17 -6 38 -7 20 -1 69 -4 107 -7 39 -3 87 -6 107 -7 23 -1 35 -5 31 -12 -4 -6
-1 -7 8 -1 19 11 69 12 69 1 0 -5 6 -4 14 2 9 7 17 8 20 3 3 -6 20 -7 40 -2
19 4 37 5 40 2 5 -5 201 -5 271 0 21 2 29 -2 27 -12 -3 -11 0 -11 13 0 8 7 33
14 54 15 34 2 39 0 36 -17 -2 -10 0 -16 6 -13 5 4 7 11 4 16 -9 14 12 18 101
23 45 2 88 7 94 11 9 6 11 4 5 -6 -7 -11 -6 -12 6 -2 17 14 110 20 129 8 9 -5
11 -4 6 3 -8 13 -8 13 44 16 19 2 46 6 59 10 21 7 23 6 17 -10 -6 -18 -5 -18
7 -2 17 22 93 37 82 16 -4 -8 -1 -7 7 2 7 8 18 16 23 16 6 1 23 5 39 8 25 6
28 5 17 -7 -9 -12 -9 -17 1 -23 7 -4 10 -3 5 1 -8 9 20 45 36 45 5 0 3 -8 -4
-18 -13 -16 -13 -16 7 0 18 16 135 48 191 53 13 1 26 5 30 8 11 12 24 8 18 -6
-4 -6 1 -3 9 7 14 18 21 15 17 -7 -1 -5 3 -6 9 -2 6 3 8 10 5 15 -3 5 -1 11 5
15 5 3 10 0 10 -7 0 -9 3 -9 8 -2 11 17 42 25 42 11 0 -7 5 -4 11 5 11 20 44
25 34 6 -4 -7 -1 -6 7 3 16 19 102 44 119 34 7 -5 10 -4 5 3 -7 12 28 27 43
18 5 -4 11 -1 13 5 2 7 18 12 35 13 17 0 29 4 27 8 -2 3 10 11 28 17 24 9 34
8 40 -1 6 -10 8 -9 8 3 0 18 20 29 50 29 10 0 21 6 23 13 4 9 8 8 16 -3 9 -13
11 -12 11 4 0 11 3 17 6 13 4 -3 19 0 34 8 21 11 30 11 39 2 10 -9 11 -8 5 7
-6 16 -4 18 10 13 9 -4 15 -3 12 2 -3 5 1 12 10 15 8 3 13 2 10 -3 -3 -5 22 6
57 24 34 18 70 31 79 29 10 -1 16 3 15 8 -1 6 14 15 33 20 19 6 37 13 40 17 3
3 25 15 50 26 25 11 47 22 50 25 12 12 151 80 145 70 -3 -5 -1 -10 4 -10 6 0
11 7 11 15 0 8 17 23 38 33 20 10 54 28 74 41 20 12 39 21 40 19 2 -2 13 6 25
17 12 11 39 29 60 40 21 11 47 28 57 37 10 10 22 15 26 13 5 -3 10 2 14 10 3
8 12 15 21 15 8 0 15 3 15 8 0 4 21 20 48 37 26 16 56 38 66 47 11 10 23 18
27 18 4 0 33 21 63 46 50 40 59 44 74 32 15 -11 16 -11 4 3 -16 21 6 42 34 33
14 -4 15 -3 5 4 -15 11 2 27 19 17 6 -4 7 1 3 11 -5 13 -3 16 10 11 12 -4 17
-1 17 9 0 9 9 18 20 21 11 3 17 9 14 14 -5 8 10 13 29 10 5 -1 6 3 2 8 -10 16
30 32 45 18 12 -10 12 -9 2 4 -11 14 -4 24 46 68 33 28 62 47 66 43 4 -4 6 -2
4 4 -4 14 213 225 225 217 6 -3 7 -1 4 4 -4 6 20 39 53 74 33 35 60 67 60 72
0 5 7 6 16 3 8 -3 13 -2 10 3 -8 12 33 63 45 55 5 -3 6 -10 3 -16 -4 -7 -2 -8
5 -4 9 6 9 11 1 21 -8 9 -3 21 20 45 17 18 40 46 51 61 11 16 24 27 29 24 4
-3 7 3 6 13 0 9 5 16 12 14 8 -1 11 2 8 7 -4 5 2 16 12 23 11 7 21 18 23 23 2
6 7 9 10 8 4 -1 6 5 5 15 0 10 5 16 14 14 8 -2 12 0 8 3 -8 9 51 95 64 95 5 0
6 5 3 10 -3 6 -2 10 4 10 5 0 13 9 16 20 4 11 11 18 16 15 5 -3 6 1 3 9 -4 11
0 16 11 16 9 0 14 4 11 9 -3 5 10 29 29 54 19 25 35 49 35 54 1 17 57 82 65
75 5 -4 5 -2 2 4 -11 19 23 76 40 69 13 -4 14 -3 3 10 -11 14 -7 19 12 16 4 0
5 6 2 14 -4 8 -1 15 6 15 6 0 9 4 5 9 -3 5 2 16 10 24 8 9 15 21 15 27 0 6 4
9 8 6 4 -2 8 3 9 12 2 27 49 103 58 95 4 -5 5 -3 1 4 -8 15 28 76 39 65 5 -4
5 -2 1 5 -7 13 24 93 36 93 5 0 8 6 8 14 0 24 46 107 55 99 4 -5 5 -3 2 3 -4
7 -2 25 4 42 8 22 15 29 27 25 12 -3 13 -2 4 4 -9 7 -5 26 20 86 19 46 36 73
42 70 6 -4 5 1 -3 10 -9 11 -10 17 -2 17 6 0 10 3 9 8 0 4 1 14 5 22 3 8 11
32 17 53 6 20 18 44 27 52 8 8 10 15 4 15 -6 0 -4 11 4 27 8 15 20 49 26 75 7
26 17 48 21 48 5 0 7 4 3 9 -3 5 -1 20 4 33 10 24 51 167 56 196 2 9 4 17 5
17 1 0 4 13 6 30 3 16 8 32 12 35 4 3 7 14 7 25 -1 11 5 40 12 65 7 24 15 58
18 75 4 28 7 45 21 97 6 24 11 66 13 106 0 13 4 21 9 19 4 -3 8 22 9 56 1 36
7 64 15 69 11 6 11 8 0 8 -7 0 -11 4 -8 9 3 4 8 35 11 67 4 32 8 75 11 94 4
33 6 65 19 270 6 87 7 342 2 395 -1 17 2 36 7 43 5 7 5 12 -1 12 -4 0 -10 30
-11 68 -3 88 -16 238 -28 323 -2 20 -6 54 -9 75 -6 50 -32 212 -39 244 -4 14
-9 39 -11 55 -23 134 -92 395 -153 580 -25 77 -47 142 -47 145 -1 3 -7 18 -13
33 -7 16 -12 31 -12 34 0 5 -7 21 -44 105 -9 20 -16 39 -16 42 0 24 -205 442
-274 559 -25 43 -46 80 -46 83 0 3 -9 17 -19 32 -10 15 -57 86 -103 157 -245
377 -517 687 -903 1034 -57 50 -190 158 -270 217 -44 32 -81 62 -83 67 -2 4
-10 7 -17 7 -7 0 -15 4 -17 8 -2 7 -152 108 -278 187 -48 31 -218 129 -255
147 -16 8 -79 40 -140 70 -312 158 -682 292 -1040 378 -88 21 -176 41 -195 44
-19 3 -46 8 -60 11 -53 10 -137 24 -180 30 -25 3 -56 8 -70 10 -14 3 -50 7
-80 10 -30 3 -74 8 -98 11 -23 3 -66 8 -95 10 -61 5 -654 14 -659 10z"/>
<path d="M8330 1300 c0 -5 5 -10 11 -10 5 0 7 5 4 10 -3 6 -8 10 -11 10 -2 0
-4 -4 -4 -10z"/>
<path d="M1909 1143 c-13 -16 -12 -17 4 -4 9 7 17 15 17 17 0 8 -8 3 -21 -13z"/>
<path d="M2376 827 c3 -10 9 -15 12 -12 3 3 0 11 -7 18 -10 9 -11 8 -5 -6z"/>
<path d="M7570 746 c0 -2 7 -7 16 -10 8 -3 12 -2 9 4 -6 10 -25 14 -25 6z"/>
<path d="M2686 638 c3 -5 10 -6 15 -3 13 9 11 12 -6 12 -8 0 -12 -4 -9 -9z"/>
<path d="M7130 519 c0 -5 5 -7 10 -4 6 3 10 8 10 11 0 2 -4 4 -10 4 -5 0 -10
-5 -10 -11z"/>
<path d="M3153 425 c0 -8 4 -12 9 -9 5 3 6 10 3 15 -9 13 -12 11 -12 -6z"/>
<path d="M6750 366 c0 -2 7 -7 16 -10 8 -3 12 -2 9 4 -6 10 -25 14 -25 6z"/>
<path d="M3430 299 c0 -5 5 -7 10 -4 6 3 10 8 10 11 0 2 -4 4 -10 4 -5 0 -10
-5 -10 -11z"/>
<path d="M3616 267 c3 -10 9 -15 12 -12 3 3 0 11 -7 18 -10 9 -11 8 -5 -6z"/>
<path d="M3715 220 c3 -5 8 -10 11 -10 2 0 4 5 4 10 0 6 -5 10 -11 10 -5 0 -7
-4 -4 -10z"/>
<path d="M6195 201 c-3 -5 -2 -12 3 -15 5 -3 9 1 9 9 0 17 -3 19 -12 6z"/>
<path d="M6115 180 c-3 -6 1 -7 9 -4 18 7 21 14 7 14 -6 0 -13 -4 -16 -10z"/>
<path d="M4345 100 c-3 -6 1 -7 9 -4 18 7 21 14 7 14 -6 0 -13 -4 -16 -10z"/>
<path d="M4415 100 c3 -5 8 -10 11 -10 2 0 4 5 4 10 0 6 -5 10 -11 10 -5 0 -7
-4 -4 -10z"/>
<path d="M4516 78 c3 -5 10 -6 15 -3 13 9 11 12 -6 12 -8 0 -12 -4 -9 -9z"/>
<path d="M5440 80 c-9 -6 -10 -10 -3 -10 6 0 15 5 18 10 8 12 4 12 -15 0z"/>
<path d="M4955 61 c-3 -5 -2 -12 3 -15 5 -3 9 1 9 9 0 17 -3 19 -12 6z"/>
<path d="M5010 59 c0 -5 5 -7 10 -4 6 3 10 8 10 11 0 2 -4 4 -10 4 -5 0 -10
-5 -10 -11z"/>
</g>
</svg>
